<svg id="logo" xmlns="http://www.w3.org/2000/svg" width="146.763" height="45" viewBox="0 0 146.763 45">
  <g id="Gruppe_3" data-name="Gruppe 3" transform="translate(1.578)">
    <g id="Gruppe_1" data-name="Gruppe 1">
      <path id="Pfad_1" data-name="Pfad 1" d="M68.525,1,30.848,7.857,2,46,18.775,1Z" transform="translate(-2 -1)" fill="#e3ff02"/>
    </g>
    <g id="Gruppe_2" data-name="Gruppe 2" transform="translate(18.029)">
      <path id="Pfad_2" data-name="Pfad 2" d="M164.956,46,118.2,36.024,37.8,46,164.956,1.168Z" transform="translate(-37.8 -1)" fill="#e3ff02"/>
    </g>
  </g>
  <g id="Gruppe_4" data-name="Gruppe 4" transform="translate(52.173 4.193)">
    <path id="Pfad_14" data-name="Pfad 14" d="M16.814,27.372l-1.04-3.379H8.3l-.875,3.379H.422l7.757-21.7h7.967l8.144,21.7ZM9.729,19.219h4.619l-2.232-7.595h-.124ZM36.668,5.3a15.45,15.45,0,0,1,5.518.93,8.852,8.852,0,0,1,3.891,2.743,6.878,6.878,0,0,1,1.441,4.418H40.977A2.516,2.516,0,0,0,39.8,11.237a4.861,4.861,0,0,0-2.852-.822A4.853,4.853,0,0,0,33.289,11.7a5.036,5.036,0,0,0-1.24,3.643v1.984a5.036,5.036,0,0,0,1.24,3.643,4.853,4.853,0,0,0,3.658,1.286,5,5,0,0,0,2.852-.791,2.366,2.366,0,0,0,1.178-2.03H36.141V15.1H47.518V27.372H36.141c-3.534,0-6.655-.925-8.432-2.774s-2.666-4.6-2.666-8.262q0-5.425,3.022-8.23T36.668,5.3Zm15.1-3.628H70.21V6.787H58.616V9.732h9.92v4.9h-9.92v3.255H70.427V23H51.765ZM89.4,27,80.44,16.646V27H74.147V5.672H80.13l8.959,10.509V5.672h6.293V27ZM110.138,5.3a11.126,11.126,0,0,1,7.5,2.372,8.445,8.445,0,0,1,2.759,6.773h-6.541a4.239,4.239,0,0,0-.977-2.945,4.164,4.164,0,0,0-5.828.217,5.934,5.934,0,0,0-.977,3.627v1.984a5.947,5.947,0,0,0,.977,3.611,3.48,3.48,0,0,0,2.992,1.318,4.076,4.076,0,0,0,3.007-1.023,3.9,3.9,0,0,0,1.023-2.883H120.4a8.382,8.382,0,0,1-2.681,6.7q-2.681,2.325-7.58,2.325-5.456,0-8.261-2.79t-2.806-8.246q0-5.456,2.806-8.246T110.138,5.3ZM137.325,27h-6.851V18.723L122.011,5.672h7.874l4.092,7.1h.124l4.092-7.1h7.471l-8.339,13.051Z" transform="translate(-52.595 1.971)" fill="#2f2f2a"/>
  </g>
</svg>
