<svg id="github" xmlns="http://www.w3.org/2000/svg" width="32" height="31.209" viewBox="0 0 32 31.209">
  <path id="github-2" data-name="github" d="M16,.4a16,16,0,0,0-5.06,31.18c.8.151,1.093-.344,1.093-.769,0-.38-.013-1.387-.02-2.72-4.451.965-5.389-2.147-5.389-2.147a4.239,4.239,0,0,0-1.78-2.34c-1.449-.992.112-.972.112-.972a3.355,3.355,0,0,1,2.451,1.648,3.41,3.41,0,0,0,4.66,1.331,3.412,3.412,0,0,1,1.013-2.14c-3.553-.4-7.288-1.776-7.288-7.907a6.17,6.17,0,0,1,1.647-4.293,5.69,5.69,0,0,1,.14-4.235s1.34-.429,4.4,1.64a15.085,15.085,0,0,1,8,0c3.04-2.069,4.38-1.64,4.38-1.64a5.847,5.847,0,0,1,.16,4.235,6.2,6.2,0,0,1,1.64,4.293c0,6.147-3.74,7.5-7.3,7.893a3.83,3.83,0,0,1,1.08,2.96c0,2.141-.02,3.861-.02,4.381,0,.42.28.92,1.1.76A15.981,15.981,0,0,0,16,.4Z" transform="translate(0 -0.395)" fill="#fff"/>
</svg>
