<svg id="instagram" xmlns="http://www.w3.org/2000/svg" width="32" height="32" viewBox="0 0 32 32">
  <path id="instagram-2" data-name="instagram" d="M16,0c-4.347,0-4.889.02-6.6.1A11.8,11.8,0,0,0,5.52.84,7.845,7.845,0,0,0,2.685,2.685,7.781,7.781,0,0,0,.84,5.52,11.772,11.772,0,0,0,.1,9.4C.016,11.111,0,11.653,0,16s.02,4.889.1,6.6A11.8,11.8,0,0,0,.84,26.48a8.172,8.172,0,0,0,4.68,4.68A11.809,11.809,0,0,0,9.4,31.9c1.707.08,2.249.1,6.6.1s4.889-.02,6.6-.1a11.83,11.83,0,0,0,3.884-.744,8.172,8.172,0,0,0,4.68-4.68A11.8,11.8,0,0,0,31.9,22.6c.08-1.707.1-2.249.1-6.6s-.02-4.889-.1-6.6A11.824,11.824,0,0,0,31.16,5.52a7.859,7.859,0,0,0-1.845-2.835A7.786,7.786,0,0,0,26.48.84,11.778,11.778,0,0,0,22.6.1C20.889.016,20.347,0,16,0Zm0,2.88c4.271,0,4.78.021,6.467.1a8.811,8.811,0,0,1,2.969.553,5.269,5.269,0,0,1,3.038,3.036,8.831,8.831,0,0,1,.551,2.969c.076,1.688.093,2.195.093,6.467s-.02,4.78-.1,6.467a8.991,8.991,0,0,1-.561,2.969,5.092,5.092,0,0,1-1.2,1.843,5,5,0,0,1-1.84,1.195,8.9,8.9,0,0,1-2.98.551c-1.7.076-2.2.093-6.479.093s-4.781-.02-6.479-.1A9.065,9.065,0,0,1,6.5,28.458a4.961,4.961,0,0,1-1.839-1.2,4.867,4.867,0,0,1-1.2-1.84,9.071,9.071,0,0,1-.56-2.98c-.06-1.68-.081-2.2-.081-6.459S2.841,11.2,2.9,9.5a9.063,9.063,0,0,1,.56-2.979,4.743,4.743,0,0,1,1.2-1.841A4.722,4.722,0,0,1,6.5,3.482a8.864,8.864,0,0,1,2.961-.561c1.7-.06,2.2-.08,6.479-.08Zm0,4.9A8.216,8.216,0,1,0,24.216,16,8.215,8.215,0,0,0,16,7.784Zm0,13.549A5.333,5.333,0,1,1,21.333,16,5.332,5.332,0,0,1,16,21.333ZM26.461,7.46a1.92,1.92,0,1,1-1.92-1.919A1.921,1.921,0,0,1,26.461,7.46Z" fill="#fff"/>
</svg>
