<svg id="linkedin" xmlns="http://www.w3.org/2000/svg" width="32" height="31.999" viewBox="0 0 32 31.999">
  <path id="linkedin-2" data-name="linkedin" d="M27.263,27.269H22.524V19.844c0-1.771-.036-4.049-2.469-4.049-2.471,0-2.848,1.927-2.848,3.919V27.27H12.468V12H17.02v2.081h.061a4.994,4.994,0,0,1,4.493-2.467c4.8,0,5.689,3.16,5.689,7.273ZM7.116,9.911A2.752,2.752,0,1,1,9.868,7.158,2.75,2.75,0,0,1,7.116,9.911ZM9.492,27.269H4.74V12H9.492ZM29.633,0H2.361A2.333,2.333,0,0,0,0,2.305V29.694A2.332,2.332,0,0,0,2.361,32H29.629A2.342,2.342,0,0,0,32,29.694V2.305A2.342,2.342,0,0,0,29.629,0Z" fill="#fff"/>
</svg>
