<?xml version="1.0" encoding="utf-8"?>
<!-- Generator: Adobe Illustrator 27.0.0, SVG Export Plug-In . SVG Version: 6.00 Build 0)  -->
<svg version="1.2" baseProfile="tiny" id="Ebene_1" xmlns="http://www.w3.org/2000/svg" xmlns:xlink="http://www.w3.org/1999/xlink"
	 x="0px" y="0px" viewBox="0 0 294.5 91.5" overflow="visible" xml:space="preserve">
<g>
	<g>
		<g>
			<path fill="#00C0FF" d="M57.8,1L23.6,90.5H2L36.4,1H57.8z"/>
		</g>
		<g>
			<path fill="#00C0FF" d="M93.8,1L59.4,90.5H37.8L72.2,1H93.8z"/>
		</g>
	</g>
	<g>
		<path fill="#FFFFFF" d="M146.9,16.9v10.5h-27V44h20.7v10.3h-20.7v27.4h-13V16.9H146.9z"/>
		<path fill="#FFFFFF" d="M159.6,79.2c-4-2.2-7.1-5.3-9.3-9.3c-2.3-4-3.4-8.7-3.4-13.9c0-5.3,1.2-9.9,3.5-13.9
			c2.3-4,5.5-7.1,9.5-9.3c4-2.2,8.5-3.3,13.5-3.3c4.9,0,9.4,1.1,13.4,3.3c4,2.2,7.2,5.3,9.5,9.3c2.3,4,3.5,8.7,3.5,13.9
			c0,5.3-1.2,9.9-3.6,13.9c-2.4,4-5.6,7.1-9.6,9.3c-4,2.2-8.6,3.3-13.6,3.3C168,82.5,163.5,81.4,159.6,79.2z M179.6,69.5
			c2.1-1.1,3.7-2.9,5-5.1c1.2-2.3,1.9-5.1,1.9-8.3c0-4.9-1.3-8.6-3.8-11.3c-2.6-2.6-5.7-3.9-9.4-3.9c-3.7,0-6.8,1.3-9.3,3.9
			c-2.5,2.6-3.8,6.4-3.8,11.3c0,4.9,1.2,8.6,3.7,11.3c2.4,2.6,5.5,3.9,9.2,3.9C175.3,71.2,177.5,70.6,179.6,69.5z"/>
		<path fill="#FFFFFF" d="M217.3,13v68.6h-13V13H217.3z"/>
		<path fill="#FFFFFF" d="M223,22c-1.5-1.4-2.3-3.3-2.3-5.4c0-2.2,0.8-4,2.3-5.4c1.5-1.5,3.4-2.2,5.7-2.2c2.3,0,4.2,0.7,5.7,2.2
			c1.5,1.5,2.3,3.3,2.3,5.4c0,2.2-0.8,4-2.3,5.4c-1.5,1.5-3.4,2.2-5.7,2.2C226.4,24.2,224.5,23.5,223,22z M235.1,30.3v51.4h-13V30.3
			H235.1z"/>
		<path fill="#FFFFFF" d="M252.3,79.2c-4-2.2-7.1-5.3-9.3-9.3c-2.3-4-3.4-8.7-3.4-13.9c0-5.3,1.2-9.9,3.5-13.9
			c2.3-4,5.5-7.1,9.5-9.3c4-2.2,8.5-3.3,13.5-3.3c4.9,0,9.4,1.1,13.4,3.3c4,2.2,7.2,5.3,9.5,9.3c2.3,4,3.5,8.7,3.5,13.9
			c0,5.3-1.2,9.9-3.6,13.9c-2.4,4-5.6,7.1-9.6,9.3c-4,2.2-8.6,3.3-13.6,3.3C260.7,82.5,256.3,81.4,252.3,79.2z M272.3,69.5
			c2.1-1.1,3.7-2.9,5-5.1c1.2-2.3,1.9-5.1,1.9-8.3c0-4.9-1.3-8.6-3.8-11.3c-2.6-2.6-5.7-3.9-9.4-3.9c-3.7,0-6.8,1.3-9.3,3.9
			c-2.5,2.6-3.8,6.4-3.8,11.3c0,4.9,1.2,8.6,3.7,11.3c2.4,2.6,5.5,3.9,9.2,3.9C268,71.2,270.2,70.6,272.3,69.5z"/>
	</g>
</g>
</svg>
